<svg width="28" height="28" viewBox="0 0 28 28" fill="none" xmlns="http://www.w3.org/2000/svg">
<rect width="28" height="28" rx="14" fill="#58D08F" fill-opacity="0.1"/>
<g clip-path="url(#clip0_276_117)">
<path d="M14 14C13.175 14 12.5 13.325 12.5 12.5C12.5 11.675 13.175 11 14 11C14.825 11 15.5 11.675 15.5 12.5C15.5 13.325 14.825 14 14 14ZM18.5 12.65C18.5 9.9275 16.5125 8 14 8C11.4875 8 9.5 9.9275 9.5 12.65C9.5 14.405 10.9625 16.73 14 19.505C17.0375 16.73 18.5 14.405 18.5 12.65ZM14 6.5C17.15 6.5 20 8.915 20 12.65C20 15.14 17.9975 18.0875 14 21.5C10.0025 18.0875 8 15.14 8 12.65C8 8.915 10.85 6.5 14 6.5Z" fill="#58D08F"/>
</g>
<defs>
<clipPath id="clip0_276_117">
<rect width="18" height="18" fill="white" transform="translate(5 5)"/>
</clipPath>
</defs>
</svg>
