<svg width="28" height="28" viewBox="0 0 28 28" fill="none" xmlns="http://www.w3.org/2000/svg">
<rect width="28" height="28" rx="14" fill="#58D08F" fill-opacity="0.1"/>
<g clip-path="url(#clip0_276_125)">
<path d="M9.905 8.75C9.95 9.4175 10.0625 10.07 10.2425 10.6925L9.3425 11.5925C9.035 10.6925 8.84 9.74 8.7725 8.75H9.905ZM17.3 17.765C17.9375 17.945 18.59 18.0575 19.25 18.1025V19.22C18.26 19.1525 17.3075 18.9575 16.4 18.6575L17.3 17.765ZM10.625 7.25H8C7.5875 7.25 7.25 7.5875 7.25 8C7.25 15.0425 12.9575 20.75 20 20.75C20.4125 20.75 20.75 20.4125 20.75 20V17.3825C20.75 16.97 20.4125 16.6325 20 16.6325C19.07 16.6325 18.1625 16.4825 17.3225 16.205C17.2475 16.175 17.165 16.1675 17.09 16.1675C16.895 16.1675 16.7075 16.2425 16.5575 16.385L14.9075 18.035C12.785 16.9475 11.045 15.215 9.965 13.0925L11.615 11.4425C11.825 11.2325 11.885 10.94 11.8025 10.6775C11.525 9.8375 11.375 8.9375 11.375 8C11.375 7.5875 11.0375 7.25 10.625 7.25Z" fill="#58D08F"/>
</g>
<defs>
<clipPath id="clip0_276_125">
<rect width="18" height="18" fill="white" transform="translate(5 5)"/>
</clipPath>
</defs>
</svg>
